<svg width="268" height="267" viewBox="0 0 268 267" fill="none" xmlns="http://www.w3.org/2000/svg">
<g clip-path="url(#clip0_8_342)">
<path d="M75.0972 122.56C75.0972 122.56 37.9777 121.257 38.629 156.879C39.2802 192.5 76.1718 192.077 86.461 180.062C86.461 180.062 93.0058 212.232 129.702 212.232C166.398 212.232 176.688 184.23 176.688 184.23C176.688 184.23 213.058 205.46 231.064 169.74C249.071 134.021 215.63 110.968 195.019 121.452C195.019 121.452 172.487 85.4074 139.242 109.437C139.242 109.437 129.93 103.707 120.064 113.866C120.064 113.866 93.3314 92.4732 75.0647 122.527L75.0972 122.56Z" fill="white"/>
<g opacity="0.3">
<path d="M38.6615 154.144C39.9313 188.821 76.2694 188.3 86.461 176.383C86.461 176.383 93.0057 208.553 129.702 208.553C166.398 208.553 176.687 180.551 176.687 180.551C176.687 180.551 213.058 201.78 231.064 166.061C234.288 159.647 235.883 153.623 236.176 148.152C235.916 143.366 234.646 139.068 232.66 135.291C233.311 141.836 232.009 149.357 227.841 157.595C214.198 184.621 189.679 177.881 179.716 173.713C177.306 172.703 174.506 173.615 173.171 175.862C168.677 183.481 156.435 198.622 129.93 198.622C104.858 198.622 94.3733 183.058 90.3683 173.973C89.131 171.206 85.8098 170.033 83.1072 171.466C69.5293 178.662 42.5037 175.08 41.9827 145.189C41.9501 143.138 42.0478 141.217 42.2432 139.394C40.1918 143.333 38.8568 148.152 38.6289 154.111L38.6615 154.144Z" fill="#000072"/>
</g>
<g opacity="0.3">
<path d="M70.4735 151.409C70.4735 151.409 69.2687 135.063 104.76 137.798C140.219 140.501 207.816 114.908 212.342 146.622C212.342 146.622 185.153 134.802 172.682 165.052C172.682 165.052 145.852 150.692 129.995 169.545C129.995 169.545 111.989 130.504 70.4735 151.409Z" fill="#000072"/>
</g>
<path d="M129.702 213.567C110.198 213.567 99.1272 204.548 93.2663 196.961C88.8705 191.296 86.7215 185.663 85.7772 182.635C78.9394 188.561 66.3058 190.514 56.1793 186.867C49.2764 184.393 37.6521 177.197 37.2939 156.911C37.0986 146.296 40.1593 137.766 46.411 131.644C56.277 121.941 70.7992 121.257 74.3483 121.225C79.9488 112.27 86.8843 107.028 94.9594 105.595C106.551 103.544 116.808 109.958 119.934 112.173C125.078 107.288 130.06 106.409 133.414 106.572C136.051 106.702 138.07 107.451 139.112 107.94C148.815 101.134 158.584 98.6272 168.124 100.516C183.135 103.446 192.903 116.112 195.475 119.824C205.83 115.168 219.082 118.066 228.134 127.053C233.083 132.002 236.242 138.286 237.218 145.255C238.325 153.199 236.665 161.665 232.269 170.392C226.929 180.941 219.505 187.714 210.16 190.482C195.898 194.682 181.702 188.365 177.339 186.151C176.199 188.593 173.334 193.901 167.896 199.241C161.188 205.785 149.108 213.633 129.702 213.633V213.567ZM86.461 178.727C86.461 178.727 86.6889 178.727 86.7866 178.76C87.275 178.89 87.6658 179.281 87.7635 179.802C87.7635 179.867 89.4566 187.714 95.4478 195.431C103.425 205.72 114.952 210.93 129.702 210.93C144.452 210.93 156.695 206.371 165.942 197.385C172.845 190.677 175.418 183.872 175.45 183.774C175.58 183.416 175.873 183.123 176.264 182.993C176.622 182.862 177.046 182.895 177.404 183.09C177.567 183.188 193.847 192.501 209.476 187.877C218.072 185.337 224.943 179.02 229.925 169.154C237.642 153.883 236.274 138.807 226.31 128.876C217.779 120.378 205.178 117.806 195.703 122.657C195.084 122.983 194.336 122.755 193.977 122.169C193.88 122.006 183.818 106.214 167.701 103.056C158.681 101.297 149.401 103.804 140.089 110.512C139.666 110.838 139.08 110.838 138.591 110.577C138.266 110.382 130.028 105.595 121.073 114.81C120.585 115.298 119.803 115.364 119.282 114.908C119.185 114.81 107.886 105.953 95.4478 108.168C87.9588 109.503 81.5118 114.55 76.2694 123.211C76.0089 123.634 75.5531 123.862 75.0972 123.862C74.9019 123.862 58.5563 123.439 48.3321 133.533C42.6339 139.133 39.8337 146.98 40.0291 156.846C40.3547 175.536 50.9044 182.081 57.1561 184.328C62.1705 186.151 67.9664 186.509 73.4692 185.402C78.6138 184.36 83.0096 182.081 85.5493 179.151C85.8098 178.857 86.168 178.695 86.5587 178.695L86.461 178.727Z" fill="#000072"/>
<path d="M203.225 144.734C200.555 155.055 193.261 163.554 183.656 168.145C167.147 175.992 135.368 186.64 113.91 165.996C109.449 161.698 106.226 156.358 104.565 150.529C103.686 147.404 103.23 144.115 103.328 140.761C103.523 133.272 106.323 124.709 116.124 119.238C125.176 114.191 136.247 114.582 145.234 119.792C148.815 121.876 153.472 123.732 158.909 123.895C171.673 124.285 179.781 111.261 197.103 123.895C198.959 125.262 200.392 126.76 201.466 128.355C204.755 133.305 204.69 139.231 203.257 144.734H203.225Z" fill="#32A6FC"/>
<path d="M187.139 126.662L187.954 127.574C188.312 127.965 188.898 128.095 189.386 127.867L190.493 127.379C191.6 126.89 192.675 128.095 192.089 129.137L191.47 130.179C191.21 130.635 191.275 131.221 191.633 131.611L192.447 132.523C193.261 133.402 192.447 134.802 191.275 134.575L190.07 134.314C189.549 134.216 188.995 134.444 188.735 134.9L188.116 135.942C187.53 136.984 185.935 136.658 185.804 135.454L185.674 134.249C185.609 133.728 185.218 133.272 184.697 133.174L183.493 132.914C182.32 132.653 182.158 131.058 183.232 130.569L184.339 130.081C184.828 129.853 185.121 129.365 185.056 128.811L184.925 127.606C184.795 126.402 186.26 125.75 187.074 126.63L187.139 126.662Z" fill="white"/>
<path d="M136.768 153.883V155.088C136.703 155.609 137.061 156.097 137.549 156.293L138.689 156.716C139.828 157.107 139.763 158.735 138.624 159.06L137.451 159.386C136.93 159.549 136.572 160.005 136.572 160.526V161.73C136.507 162.935 134.944 163.391 134.26 162.382L133.577 161.372C133.284 160.916 132.73 160.721 132.209 160.884L131.037 161.209C129.897 161.535 128.986 160.2 129.702 159.256L130.451 158.279C130.776 157.856 130.809 157.269 130.483 156.814L129.8 155.804C129.116 154.827 130.125 153.525 131.232 153.948L132.372 154.372C132.893 154.567 133.446 154.372 133.772 153.948L134.521 152.971C135.27 152.027 136.768 152.581 136.735 153.753L136.768 153.883Z" fill="white"/>
<path d="M152.625 127.769L152.918 128.388C153.048 128.648 153.341 128.811 153.634 128.779L154.318 128.681C155.002 128.583 155.392 129.397 154.904 129.886L154.416 130.374C154.188 130.57 154.123 130.895 154.285 131.188L154.578 131.807C154.872 132.426 154.22 133.044 153.602 132.719L152.983 132.393C152.722 132.263 152.397 132.295 152.169 132.491L151.681 132.979C151.192 133.435 150.378 133.012 150.508 132.36L150.639 131.677C150.704 131.384 150.541 131.091 150.28 130.928L149.662 130.602C149.076 130.277 149.238 129.397 149.89 129.3L150.573 129.202C150.867 129.169 151.127 128.941 151.16 128.648L151.29 127.965C151.42 127.313 152.299 127.183 152.625 127.769Z" fill="white"/>
<path d="M177.371 147.143L177.501 147.827C177.567 148.12 177.794 148.348 178.12 148.38L178.804 148.445C179.488 148.511 179.65 149.422 179.064 149.748L178.478 150.074C178.218 150.236 178.088 150.529 178.12 150.822L178.25 151.506C178.381 152.157 177.599 152.613 177.078 152.157L176.557 151.702C176.329 151.506 176.004 151.474 175.743 151.604L175.157 151.93C174.571 152.255 173.887 151.636 174.18 151.018L174.473 150.399C174.603 150.139 174.538 149.813 174.31 149.585L173.789 149.129C173.301 148.673 173.659 147.827 174.343 147.925L175.027 147.99C175.32 148.022 175.613 147.859 175.743 147.599L176.036 146.98C176.329 146.362 177.208 146.459 177.371 147.143Z" fill="white"/>
<g opacity="0.3">
<path d="M145.527 116.568C145.527 116.568 151.485 123.113 141.88 138.417C141.554 138.938 141.489 139.621 141.782 140.175C142.173 140.989 142.726 142.291 143.117 143.724C143.117 143.724 139.307 141.901 134.488 142.226C134.488 142.226 147.22 128.16 145.559 116.536L145.527 116.568Z" fill="#000072"/>
</g>
<g opacity="0.3">
<path d="M203.225 144.734C200.555 155.055 193.261 163.554 183.655 168.145C167.147 175.992 135.368 186.64 113.91 165.996C109.449 161.698 106.225 156.358 104.565 150.529L122.799 152.613C122.799 152.613 127.162 157.009 129.474 160.949C130.093 161.958 131.428 162.251 132.404 161.6C136.149 159.06 145.071 154.111 155.62 156C155.62 156 160.374 147.762 156.728 140.924C156.728 140.924 158.421 142.487 159.951 145.743C160.635 147.176 162.686 147.013 163.109 145.515C163.989 142.585 165.486 139.263 168.026 136.952C168.026 136.952 167.896 138.352 167.863 140.468C167.863 147.176 175.58 151.018 180.888 146.915C183.655 144.766 187.139 142.91 191.438 141.933C197.559 140.566 201.792 134.9 201.434 128.616C201.434 128.551 201.434 128.486 201.434 128.421C204.722 133.37 204.657 139.296 203.225 144.799V144.734Z" fill="#000072"/>
</g>
<g opacity="0.7">
<path d="M116.092 122.559C125.143 117.513 136.214 117.903 145.201 123.113C148.783 125.197 153.439 127.053 158.877 127.216C171.641 127.606 179.748 114.582 197.071 127.216C198.927 128.583 200.359 130.081 201.434 131.677C203.062 134.119 203.876 136.821 204.104 139.589C204.397 135.682 203.746 131.774 201.434 128.323C200.359 126.727 198.927 125.197 197.071 123.862C179.748 111.228 171.641 124.253 158.877 123.862C153.439 123.699 148.783 121.843 145.201 119.759C136.214 114.549 125.143 114.159 116.092 119.206C106.291 124.676 103.49 133.239 103.295 140.729C103.295 141.575 103.295 142.422 103.328 143.236C103.718 135.942 106.616 127.802 116.092 122.527V122.559Z" fill="white"/>
</g>
<path d="M170.143 122.853C169.752 123.015 169.296 123.243 168.873 123.471C168.645 123.569 168.449 123.699 168.222 123.829C167.994 123.927 167.798 124.057 167.57 124.188C166.724 124.676 165.91 125.197 165.128 125.783C164.347 126.369 163.598 126.988 162.947 127.704C162.295 128.42 161.709 129.169 161.058 130.016C161.058 130.016 160.96 130.081 160.895 130.016C160.895 130.016 160.863 129.951 160.863 129.918C160.895 128.844 161.319 127.769 161.84 126.858C162.426 125.946 163.077 125.099 163.826 124.318C164.575 123.536 165.389 122.853 166.235 122.201C166.659 121.876 167.114 121.583 167.538 121.29C167.994 120.997 168.417 120.736 168.97 120.443C169.622 120.117 170.436 120.378 170.761 121.029C171.087 121.68 170.826 122.494 170.175 122.82C170.175 122.82 170.143 122.82 170.11 122.82L170.143 122.853Z" fill="#000072"/>
<path d="M174.636 172.476C174.343 172.15 174.115 171.824 173.855 171.531C173.594 171.206 173.366 170.88 173.138 170.554C172.65 169.903 172.227 169.252 171.771 168.568C170.892 167.233 170.078 165.866 169.361 164.433C167.896 161.6 166.724 158.572 165.942 155.446C165.193 152.32 164.835 149.064 165.096 145.873C165.193 144.278 165.454 142.682 165.942 141.119C166.073 140.729 166.203 140.37 166.333 139.98C166.496 139.622 166.659 139.231 166.821 138.873L167.082 138.319L167.375 137.798C167.57 137.44 167.798 137.114 167.994 136.789C167.994 136.756 168.091 136.724 168.124 136.789C168.156 136.789 168.189 136.854 168.156 136.886C168.091 137.277 168.026 137.668 167.929 138.059L167.798 138.612L167.701 139.198C167.636 139.589 167.538 139.947 167.473 140.338C167.408 140.729 167.375 141.087 167.31 141.477C167.082 142.975 166.887 144.473 166.887 145.971C166.887 147.469 166.952 148.967 167.212 150.464C167.44 151.962 167.733 153.427 168.189 154.86C168.612 156.293 169.133 157.725 169.719 159.126C170.306 160.526 170.989 161.893 171.706 163.196C172.422 164.531 173.203 165.833 174.05 167.103C174.473 167.722 174.897 168.34 175.352 168.959L176.036 169.871C176.264 170.164 176.492 170.457 176.72 170.717C177.208 171.303 177.143 172.15 176.557 172.606C176.004 173.094 175.157 173.029 174.701 172.476H174.636Z" fill="#000072"/>
<path d="M157.021 140.826C157.769 141.803 158.225 142.91 158.518 144.05C158.811 145.189 158.909 146.394 158.942 147.599C158.942 148.804 158.844 150.008 158.649 151.181C158.583 151.474 158.518 151.767 158.453 152.06L158.356 152.516L158.225 152.939L157.965 153.818L157.639 154.665C157.444 155.251 157.151 155.772 156.89 156.325C156.76 156.586 156.597 156.846 156.434 157.107C156.272 157.367 156.141 157.628 155.946 157.888L155.425 158.637C155.23 158.865 155.067 159.125 154.872 159.353L154.285 160.037L153.992 160.395L153.667 160.721C152.82 161.6 151.876 162.349 150.932 163.065C150.443 163.391 149.955 163.749 149.434 164.075L147.903 164.954C143.703 167.135 139.145 168.47 134.586 169.219L132.86 169.48L132.014 169.61L131.167 169.708L129.441 169.903C128.855 169.968 128.302 170.033 127.716 170.066C125.404 170.261 123.059 170.326 120.683 170.131C119.51 170.033 118.306 169.871 117.133 169.578C115.961 169.284 114.756 168.894 113.617 168.243C112.477 167.591 111.403 166.68 110.719 165.442C110.361 164.824 110.133 164.14 109.97 163.456C109.905 163.098 109.84 162.772 109.84 162.414C109.84 162.056 109.84 161.73 109.84 161.405C109.937 160.07 110.328 158.832 110.817 157.693C111.305 156.553 111.956 155.511 112.64 154.534C114.04 152.581 115.668 150.855 117.459 149.325C121.041 146.264 125.143 143.854 129.669 142.487C131.916 141.803 134.293 141.412 136.67 141.412C137.875 141.412 139.079 141.543 140.219 141.868C141.359 142.194 142.466 142.78 143.312 143.659C143.378 143.724 143.378 143.822 143.312 143.854C143.312 143.854 143.247 143.887 143.182 143.887C141.977 143.757 140.935 143.594 139.861 143.464C138.786 143.333 137.744 143.203 136.637 143.236C134.488 143.301 132.307 143.724 130.255 144.44C128.172 145.124 126.185 146.101 124.297 147.241C122.408 148.38 120.617 149.65 118.989 151.115C117.361 152.581 115.864 154.209 114.659 155.967C114.04 156.846 113.519 157.758 113.096 158.702C112.705 159.646 112.379 160.623 112.347 161.568C112.347 161.795 112.347 162.023 112.347 162.251C112.347 162.479 112.412 162.707 112.445 162.903C112.542 163.326 112.673 163.749 112.9 164.107C113.324 164.856 114.008 165.475 114.854 165.931C115.701 166.419 116.678 166.745 117.687 167.005C118.696 167.266 119.771 167.396 120.845 167.494C123.027 167.656 125.241 167.591 127.455 167.429C128.009 167.396 128.562 167.331 129.116 167.266L130.776 167.07L131.623 166.973L132.437 166.842L134.098 166.582C138.493 165.833 142.791 164.596 146.666 162.609C148.587 161.6 150.378 160.363 151.909 158.898C153.439 157.432 154.709 155.707 155.588 153.753L155.913 153.037L156.174 152.288L156.304 151.897L156.402 151.506C156.467 151.246 156.532 150.985 156.597 150.725C156.825 149.683 156.955 148.608 157.021 147.534C157.053 146.459 157.021 145.385 156.955 144.278C156.923 143.171 156.858 142.064 156.825 140.891C156.825 140.891 156.89 140.729 156.955 140.729C157.021 140.729 157.053 140.729 157.086 140.794L157.021 140.826Z" fill="#201777"/>
<path d="M145.331 179.313C134 179.313 122.539 176.122 112.998 166.94C105.737 159.972 101.732 150.399 101.993 140.729C102.253 130.667 106.909 122.853 115.473 118.066C124.72 112.889 136.409 113.117 145.917 118.62C150.15 121.094 154.546 122.397 158.974 122.527C163.077 122.657 166.691 121.29 170.501 119.857C178.088 116.992 185.935 114.061 197.917 122.787C204.755 127.769 207.034 135.454 204.56 145.059C201.824 155.674 194.433 164.498 184.274 169.35C174.571 173.973 160.081 179.346 145.396 179.346L145.331 179.313ZM116.743 120.411C108.961 124.774 104.858 131.611 104.63 140.794C104.402 149.748 108.114 158.572 114.822 165.019C123.776 173.648 134.619 176.643 145.364 176.643C159.56 176.643 173.627 171.401 183.069 166.94C192.512 162.447 199.382 154.241 201.922 144.408C204.136 135.844 202.248 129.3 196.289 124.969C185.479 117.089 178.641 119.662 171.38 122.397C167.505 123.862 163.468 125.392 158.844 125.23C153.992 125.067 149.173 123.634 144.55 120.964C135.856 115.917 125.209 115.722 116.743 120.411Z" fill="#000072"/>
<path d="M128.432 93.3198C128.432 93.3198 133.284 88.4031 138.949 93.6779C144.615 98.9528 143.671 106.246 141.554 108.884C139.438 111.521 128.465 93.2872 128.465 93.2872L128.432 93.3198Z" fill="#FFDAB6"/>
<path d="M141.001 110.479C141.001 110.479 140.903 110.479 140.838 110.479C139.568 110.382 137.582 109.307 132.437 101.916C129.702 97.976 127.325 94.0361 127.292 94.0035C126.967 93.4826 127.065 92.7988 127.488 92.3755C129.474 90.3567 134.619 87.8169 139.861 92.7011C145.917 98.3341 145.299 106.344 142.596 109.73C142.205 110.219 141.652 110.479 141.001 110.479ZM130.19 93.6128C134.098 99.9622 138.917 106.637 140.773 107.712C142.173 105.465 143.15 99.4086 138.038 94.6547C134.554 91.4312 131.591 92.6685 130.19 93.6128Z" fill="#000072"/>
<path d="M79.9813 141.445C79.9813 141.445 75.032 146.231 80.2744 151.962C85.5167 157.66 92.8103 156.781 95.4803 154.665C98.1503 152.548 79.9813 141.445 79.9813 141.445Z" fill="#FFDAB6"/>
<path d="M89.8474 157.628C86.3959 157.628 82.4234 156.293 79.265 152.841C74.446 147.566 76.9858 142.454 79.0371 140.468C79.4604 140.045 80.1442 139.98 80.6652 140.273C80.6977 140.273 84.6376 142.715 88.5449 145.482C95.9037 150.692 96.9782 152.678 97.0433 153.948C97.0759 154.632 96.8154 155.251 96.2619 155.674C94.7966 156.846 92.4522 157.595 89.8474 157.595V157.628ZM80.2419 143.171C79.2976 144.538 78.0277 147.534 81.2187 151.018C85.9075 156.13 91.9964 155.218 94.2431 153.818C93.2011 151.962 86.5587 147.111 80.2419 143.138V143.171Z" fill="#000072"/>
<path d="M131.753 145.124C131.753 145.124 104.728 173.615 88.0239 150.692C88.0239 150.692 73.3064 140.305 70.8317 124.904C69.4642 116.373 71.8737 106.312 82.6188 95.6316C112.803 65.6755 137.647 101.427 137.647 101.427C142.075 104.684 144.55 108.33 145.689 112.075C150.411 127.672 131.753 145.124 131.753 145.124Z" fill="#FFDAB6"/>
<g opacity="0.3">
<path d="M131.753 145.124C131.753 145.124 104.728 173.615 88.0239 150.692C88.0239 150.692 73.3063 140.305 70.8317 124.904C71.1898 125.457 91.6381 155.055 128.237 136.43C140.187 130.342 144.843 121.387 145.657 112.075C150.378 127.672 131.721 145.124 131.721 145.124H131.753Z" fill="#000072"/>
</g>
<g opacity="0.7">
<path d="M145.689 112.075C144.55 108.33 142.075 104.684 137.647 101.427C137.647 101.427 112.803 65.6755 82.6188 95.6316C75.7159 102.502 72.2644 109.079 71.0271 115.201C72.7528 110.154 76.0741 104.814 81.6094 99.3109C89.2938 91.6917 96.62 88.3379 103.262 87.5239C103.751 87.4587 104.239 87.6216 104.597 87.9797C105.835 89.2822 108.602 90.6172 111.989 91.3986C115.538 92.2452 118.761 92.2452 120.357 91.5614C120.78 91.3661 121.301 91.3986 121.725 91.6591C129.865 96.2828 135.237 103.186 136.41 104.749C136.572 104.977 136.768 105.172 136.996 105.335C141.196 108.526 143.573 112.075 144.68 115.722C145.657 118.913 145.624 122.201 145.006 125.392C146.471 121.094 147.024 116.503 145.689 112.075Z" fill="white"/>
</g>
<path d="M123.841 105.563C124.167 106.963 124.004 108.461 123.581 109.861C123.125 111.261 122.343 112.563 121.301 113.638C121.041 113.898 120.748 114.159 120.487 114.387C120.194 114.615 119.901 114.843 119.576 115.038C119.282 115.233 118.957 115.429 118.631 115.591C118.306 115.754 117.98 115.917 117.622 116.015C116.254 116.536 114.822 116.764 113.389 116.633C113.324 116.633 113.291 116.568 113.291 116.536C113.291 116.503 113.291 116.471 113.356 116.471C114.594 115.787 115.766 115.168 116.84 114.484C116.971 114.387 117.101 114.322 117.231 114.224L117.622 113.963C117.882 113.768 118.143 113.605 118.371 113.377C118.859 112.987 119.315 112.563 119.738 112.14C120.617 111.261 121.366 110.284 122.018 109.177C122.669 108.07 123.255 106.898 123.743 105.563C123.743 105.563 123.776 105.53 123.808 105.563H123.841Z" fill="#000072"/>
<path d="M92.2894 136.821C93.5919 136.333 94.7966 135.747 95.9037 135.095C97.0108 134.444 97.9876 133.695 98.8993 132.849C99.3552 132.425 99.7785 131.97 100.169 131.481C100.365 131.253 100.56 130.993 100.755 130.732L101.016 130.342C101.016 130.342 101.211 130.081 101.276 129.951C101.993 128.876 102.611 127.704 103.295 126.467C103.295 126.434 103.393 126.402 103.425 126.434C103.425 126.434 103.458 126.467 103.49 126.499C103.621 127.932 103.36 129.365 102.872 130.732C102.742 131.09 102.579 131.416 102.416 131.742C102.253 132.067 102.058 132.393 101.862 132.686C101.667 133.012 101.439 133.272 101.211 133.565C100.951 133.858 100.723 134.119 100.43 134.379C99.3552 135.421 98.0202 136.17 96.62 136.626C95.2199 137.049 93.7221 137.212 92.322 136.854C92.322 136.854 92.2894 136.854 92.322 136.789L92.2894 136.821Z" fill="#000072"/>
<path d="M116.319 123.927C115.603 124.188 114.952 124.448 114.366 124.741C113.78 125.034 113.291 125.36 112.868 125.75C112.477 126.141 112.152 126.597 111.858 127.183C111.598 127.737 111.37 128.388 111.077 129.137C111.077 129.169 111.012 129.202 110.979 129.169C110.979 129.169 110.979 129.169 110.947 129.169C110.556 128.486 110.426 127.672 110.556 126.858C110.654 126.044 111.11 125.229 111.761 124.643C112.412 124.057 113.226 123.732 114.008 123.601C114.789 123.504 115.603 123.569 116.319 123.894C116.319 123.894 116.319 123.927 116.319 123.96V123.927Z" fill="#000072"/>
<path d="M104.076 160.949C103.621 160.949 103.165 160.949 102.709 160.916C96.5874 160.526 91.3125 157.4 87.0796 151.669C85.1911 150.269 70.6037 139.133 69.2687 122.95C68.4547 113.214 72.6225 103.707 81.707 94.6873C90.7915 85.7004 100.299 81.5652 110.068 82.4443C126.25 83.9096 137.256 98.562 138.656 100.483C144.354 104.781 147.448 110.056 147.773 116.177C148.62 130.83 133.707 145.124 132.73 146.068C131.818 147.013 118.273 160.949 104.109 160.949H104.076ZM107.463 85.0166C99.3225 85.0166 91.3125 88.8914 83.563 96.5758C75.0646 105.009 71.1573 113.801 71.9062 122.722C73.2086 138.449 88.6425 149.487 88.7728 149.585C88.903 149.683 89.0007 149.78 89.0658 149.878C92.8429 155.055 97.4665 157.856 102.839 158.214C116.384 159.093 130.614 144.31 130.744 144.18C130.744 144.18 130.776 144.147 130.809 144.115C130.972 143.985 145.82 129.886 145.038 116.308C144.713 110.935 141.945 106.279 136.8 102.469C136.67 102.372 136.572 102.274 136.507 102.144C136.409 101.981 125.436 86.4819 109.742 85.0818C108.961 85.0166 108.212 84.9841 107.43 84.9841L107.463 85.0166Z" fill="#000072"/>
<path d="M123.125 146.622C128.753 146.622 133.316 142.059 133.316 136.43C133.316 130.802 128.753 126.239 123.125 126.239C117.496 126.239 112.933 130.802 112.933 136.43C112.933 142.059 117.496 146.622 123.125 146.622Z" fill="#00DBFF"/>
<g opacity="0.3">
<path d="M132.307 132.002C132.177 134.412 131.167 136.821 129.311 138.645C125.306 142.617 118.859 142.585 114.919 138.58C114.105 137.765 113.454 136.821 112.966 135.844C112.803 138.612 113.78 141.445 115.896 143.594C119.868 147.599 126.316 147.599 130.288 143.659C133.446 140.501 134.13 135.812 132.274 132.002H132.307Z" fill="#000072"/>
</g>
<g opacity="0.7">
<path d="M116.287 131.872C120.292 127.9 126.739 127.932 130.679 131.937C131.981 133.272 132.86 134.835 133.316 136.528C133.316 133.891 132.339 131.286 130.353 129.267C126.381 125.262 119.934 125.262 115.961 129.202C113.291 131.839 112.412 135.616 113.291 139.003C113.291 136.398 114.301 133.826 116.287 131.872Z" fill="white"/>
</g>
<path d="M123.125 147.566C120.259 147.566 117.394 146.459 115.212 144.278C110.882 139.915 110.914 132.849 115.277 128.518C119.641 124.188 126.706 124.22 131.037 128.583C135.368 132.947 135.335 140.012 130.972 144.343C128.79 146.492 125.957 147.566 123.125 147.566ZM123.125 127.216C120.78 127.216 118.403 128.095 116.612 129.886C112.998 133.467 112.966 139.328 116.58 142.943C120.194 146.557 126.023 146.59 129.637 142.975C133.251 139.394 133.284 133.533 129.669 129.918C127.879 128.095 125.502 127.183 123.125 127.183V127.216Z" fill="#000072"/>
<path d="M128.237 150.236C126.023 150.236 123.776 149.39 122.083 147.697C120.455 146.069 119.575 143.887 119.575 141.575C119.575 139.263 120.487 137.082 122.148 135.454C123.776 133.826 125.957 132.947 128.237 132.947C130.548 132.947 132.73 133.858 134.358 135.519C135.986 137.147 136.865 139.328 136.865 141.64C136.865 143.952 135.954 146.134 134.293 147.762C132.6 149.422 130.386 150.269 128.204 150.269L128.237 150.236ZM128.237 134.444C126.348 134.444 124.557 135.193 123.222 136.528C121.855 137.863 121.106 139.654 121.106 141.575C121.106 143.496 121.822 145.287 123.19 146.622C125.957 149.422 130.483 149.422 133.284 146.655C134.651 145.32 135.4 143.529 135.4 141.608C135.4 139.687 134.684 137.896 133.316 136.561C131.981 135.193 130.19 134.444 128.269 134.444H128.237Z" fill="#000072"/>
<path d="M123.125 140.859C125.57 140.859 127.553 138.876 127.553 136.43C127.553 133.985 125.57 132.002 123.125 132.002C120.679 132.002 118.696 133.985 118.696 136.43C118.696 138.876 120.679 140.859 123.125 140.859Z" fill="#FFE448"/>
<g opacity="0.3">
<path d="M126.576 133.63C126.609 134.802 126.185 136.007 125.274 136.919C123.548 138.645 120.715 138.645 119.022 136.919C118.924 136.821 118.827 136.724 118.729 136.593C118.761 137.668 119.185 138.742 119.999 139.589C121.724 141.315 124.525 141.347 126.25 139.589C127.879 137.961 127.976 135.389 126.544 133.63H126.576Z" fill="#000072"/>
</g>
<path d="M123.125 141.836C121.692 141.836 120.324 141.249 119.315 140.24C118.306 139.231 117.752 137.863 117.752 136.43C117.752 134.998 118.338 133.63 119.348 132.621C121.464 130.537 124.883 130.537 126.967 132.621C129.051 134.737 129.051 138.156 126.967 140.24C125.957 141.249 124.59 141.803 123.157 141.803L123.125 141.836ZM120.683 138.905C121.334 139.556 122.213 139.914 123.125 139.947C124.036 139.947 124.915 139.589 125.567 138.938C126.934 137.57 126.934 135.388 125.567 134.021C124.915 133.37 124.036 133.012 123.125 132.979C122.213 132.979 121.334 133.337 120.683 133.988C120.031 134.64 119.673 135.519 119.641 136.43C119.641 137.375 119.999 138.221 120.65 138.905H120.683Z" fill="#000072"/>
<path d="M85.7772 100.158C84.1817 99.2784 82.6839 98.3666 81.2187 97.3247C79.7534 96.3153 78.2882 95.2408 76.9532 93.9384C76.2694 93.2871 75.6507 92.6034 75.0646 91.7568C74.7716 91.3335 74.5111 90.8776 74.3157 90.3241C74.1204 89.7706 73.9901 89.1193 74.1204 88.403C74.2506 87.6866 74.6739 87.068 75.1298 86.6447C75.5856 86.2214 76.0415 85.9609 76.595 85.733C77.1485 85.5051 77.7672 85.4074 78.3859 85.4399C79.0045 85.4725 79.5906 85.6679 80.079 85.9284C81.0884 86.4493 81.8048 87.2959 82.3257 88.1751C82.8467 89.0542 83.1723 90.0636 83.2049 91.1707C83.2049 91.7242 83.1398 92.2777 82.8793 92.8313C82.6513 93.3848 82.2281 93.9058 81.7396 94.2314C81.2512 94.5896 80.6977 94.7524 80.1767 94.8501C79.6557 94.9477 79.1348 94.9477 78.6463 94.9152C77.6695 94.8501 76.7578 94.6221 75.8787 94.3291C74.9995 94.036 74.1855 93.6779 73.3715 93.3197C72.5574 92.929 71.776 92.5382 71.0271 92.0498C70.2782 91.5614 69.5944 90.9753 69.0083 90.259C69.0083 90.259 69.0083 90.259 69.0083 90.2264C69.92 90.3892 70.7666 90.6823 71.5481 91.0079C72.3621 91.3335 73.111 91.7242 73.8924 92.0498C74.6739 92.3754 75.4879 92.6359 76.302 92.8638C77.116 93.0918 77.93 93.222 78.6789 93.2546C79.4278 93.2546 80.1767 93.1243 80.6 92.7662C81.0233 92.4406 81.2187 91.9196 81.1861 91.2358C81.121 89.9334 80.1442 88.4356 79.0371 87.9146C78.4835 87.6541 77.9626 87.6541 77.4416 87.882C77.1811 87.9797 76.8881 88.2076 76.7252 88.3704C76.5624 88.5658 76.4648 88.696 76.4648 88.8588C76.4648 89.0217 76.4648 89.2496 76.595 89.5101C76.6927 89.7706 76.8881 90.0962 77.0834 90.3892C77.5067 90.9753 78.0602 91.5614 78.6789 92.1149C81.121 94.3291 84.1166 96.1851 87.0471 97.8457C87.6657 98.2364 87.8937 99.0179 87.5355 99.6365C87.1773 100.255 86.3959 100.483 85.7772 100.125V100.158Z" fill="#000072"/>
<path d="M70.2782 151.506C112.347 130.049 129.865 169.805 129.865 169.805C149.76 148.348 172.78 165.67 172.78 165.67C183.493 134.933 212.407 146.622 212.407 146.622C212.407 146.622 209.118 167.819 175.646 174.69C175.646 174.69 174.311 175.666 173.724 175.829C140.187 185.304 105.184 177.685 77.3114 156.781L70.2782 151.506Z" fill="white"/>
<path d="M129.865 171.173C129.865 171.173 129.702 171.173 129.637 171.173C129.181 171.108 128.823 170.815 128.627 170.392C128.562 170.229 121.269 154.111 105.411 148.478C95.1548 144.831 83.5631 146.264 70.8969 152.711C70.2456 153.037 69.4316 152.776 69.106 152.125C68.7804 151.474 69.0409 150.66 69.6921 150.334C83.0421 143.529 95.3827 142.064 106.356 145.971C120.292 150.92 127.813 163 130.256 167.559C140.577 157.367 151.55 156.911 159.072 158.409C165.128 159.614 169.882 162.219 172.129 163.619C175.548 154.827 180.79 148.771 187.791 145.613C199.773 140.175 212.374 145.189 212.895 145.385C213.579 145.645 213.905 146.427 213.644 147.11C213.384 147.794 212.602 148.12 211.918 147.859C211.723 147.794 199.773 143.105 188.898 148.055C182.19 151.115 177.176 157.172 174.083 166.126C173.952 166.517 173.627 166.842 173.203 166.973C172.78 167.103 172.357 167.005 171.999 166.777C171.934 166.745 166.333 162.577 158.453 161.014C148.034 158.963 138.754 162.251 130.874 170.75C130.614 171.01 130.256 171.173 129.897 171.173H129.865Z" fill="#000072"/>
</g>
<defs>
<clipPath id="clip0_8_342">
<rect width="267" height="267" fill="white" transform="translate(0.5)"/>
</clipPath>
</defs>
</svg>
